<?xml version="1.0" standalone="no"?>
<!DOCTYPE svg PUBLIC "-//W3C//DTD SVG 1.1//EN" "http://www.w3.org/Graphics/SVG/1.1/DTD/svg11.dtd" >
<svg xmlns="http://www.w3.org/2000/svg">
<metadata></metadata>
<defs>
<font id="silkscreennormal" horiz-adv-x="750" >
<font-face units-per-em="1050" ascent="840" descent="-210" />
<missing-glyph horiz-adv-x="500" />
<glyph horiz-adv-x="1050" />
<glyph horiz-adv-x="1050" />
<glyph unicode="&#xd;" horiz-adv-x="500" />
<glyph unicode=" "  horiz-adv-x="500" />
<glyph unicode="&#x09;" horiz-adv-x="500" />
<glyph unicode="&#xa0;" horiz-adv-x="500" />
<glyph unicode="!" horiz-adv-x="375" d="M125 250v375h125v-375h-125zM125 125h125v-125h-125v125z" />
<glyph unicode="&#x22;" horiz-adv-x="625" d="M250 375h-125v250h125v-250zM500 375h-125v250h125v-250z" />
<glyph unicode="#" horiz-adv-x="875" d="M125 500h125v-125h-125v125zM250 0v625h125v-625h-125zM500 0v625h125v-625h-125zM375 500h125v-125h-125v125zM625 500h125v-125h-125v125zM125 250h125v-125h-125v125zM375 250h125v-125h-125v125zM625 250h125v-125h-125v125z" />
<glyph unicode="$" d="M625 500h-375v125h375v-125zM500 250h-250v125h250v-125zM250 375h-125v125h125v-125zM625 0h-500v125h375v125h125v-250zM375 -125h-125v125h125v-125zM500 625h-125v125h125v-125z" />
<glyph unicode="%" horiz-adv-x="875" d="M250 0v250h125v-250h-125zM375 250v125h125v-125h-125zM500 375v250h125v-250h-125zM125 375v250h250v-250h-250zM500 0v250h250v-250h-250z" />
<glyph unicode="&#x26;" d="M625 500h-375v125h375v-125zM500 250h-250v125h250v-125zM250 375h-125v125h125v-125zM625 0h-375v125h375v-125zM250 125h-125v125h125v-125zM500 -125h-125v125h125v-125zM500 625h-125v125h125v-125z" />
<glyph unicode="'" horiz-adv-x="375" d="M250 375h-125v250h125v-250z" />
<glyph unicode="(" horiz-adv-x="500" d="M375 500h-125v125h125v-125zM250 125h-125v375h125v-375zM375 0h-125v125h125v-125zM250 0z" />
<glyph unicode=")" horiz-adv-x="500" d="M250 500h-125v125h125v-125zM375 125h-125v375h125v-375zM250 0h-125v125h125v-125zM250 0z" />
<glyph unicode="*" horiz-adv-x="875" d="M500 375h125v-125h-125v125zM625 500h125v-125h-125v125zM625 250h125v-125h-125v125zM125 250h125v-125h-125v125zM250 375h125v-125h-125v125zM125 500h125v-125h-125v125zM375 0v625h125v-625h-125z" />
<glyph unicode="+" horiz-adv-x="875" d="M125 250h250v-250h125v250h250v125h-250v250h-125v-250h-250v-125z" />
<glyph unicode="," horiz-adv-x="375" d="M125 125h125v-125h-125v125zM0 0h125v-125h-125v125z" />
<glyph unicode="-" horiz-adv-x="625" d="M500 250h-375v125h375v-125z" />
<glyph unicode="." horiz-adv-x="250" d="M0 125h125v-125h-125v125z" />
<glyph unicode="/" horiz-adv-x="625" d="M500 375h-125v250h125v-250zM375 250h-125v125h125v-125zM250 0h-125v250h125v-250z" />
<glyph unicode="0" d="M500 500h-250v125h250v-125zM250 125h-125v375h125v-375zM500 0h-250v125h250v-125zM250 0zM625 125h-125v375h125v-375z" />
<glyph unicode="1" horiz-adv-x="625" d="M250 500h-125v125h250v-500h125v-125h-375v125h125v375z" />
<glyph unicode="2" d="M125 0v250h125v-125h375v-125h-500zM500 500h125v-125h-125v125zM500 500h-375v125h375v-125zM250 375h250v-125h-250v125z" />
<glyph unicode="3" d="M500 500h125v-125h-125v125zM500 500h-375v125h375v-125zM250 375h250v-125h-250v125zM500 250h125v-125h-125v125zM500 0h-375v125h375v-125z" />
<glyph unicode="4" d="M125 625v-500h250v-125h125v125h125v125h-125v375h-125v-375h-125v375h-125z" />
<glyph unicode="5" d="M125 625v-375h375v125h-250v125h375v125h-500zM500 250h125v-125h-125v125zM500 0h-375v125h375v-125z" />
<glyph unicode="6" d="M250 625h250v-125h-250v125zM500 250h125v-125h-125v125zM250 125h250v-125h-250v125zM125 500v-375h125v125h250v125h-250v125h-125z" />
<glyph unicode="7" d="M625 625v-250h-125v125h-375v125h500zM375 375h125v-125h-125v125zM375 0h-125v250h125v-250z" />
<glyph unicode="8" d="M500 500h125v-125h-125v125zM500 500h-250v125h250v-125zM250 375h250v-125h-250v125zM500 250h125v-125h-125v125zM500 0h-250v125h250v-125zM125 500h125v-125h-125v125zM125 250h125v-125h-125v125z" />
<glyph unicode="9" d="M500 0h-250v125h250v-125zM250 375h-125v125h125v-125zM500 500h-250v125h250v-125zM625 125v375h-125v-125h-250v-125h250v-125h125z" />
<glyph unicode=":" horiz-adv-x="250" d="M0 250h125v-125h-125v125zM0 500h125v-125h-125v125z" />
<glyph unicode=";" horiz-adv-x="375" d="M125 250h125v-125h-125v125zM125 500h125v-125h-125v125zM0 125h125v-125h-125v125z" />
<glyph unicode="&#x3c;" horiz-adv-x="625" d="M375 125h125v-125h-125v125zM250 250h125v-125h-125v125zM125 375h125v-125h-125v125zM250 500h125v-125h-125v125zM375 625h125v-125h-125v125z" />
<glyph unicode="=" horiz-adv-x="625" d="M500 125h-375v125h375v-125zM500 375h-375v125h375v-125z" />
<glyph unicode="&#x3e;" horiz-adv-x="625" d="M125 125h125v-125h-125v125zM250 250h125v-125h-125v125zM375 375h125v-125h-125v125zM250 500h125v-125h-125v125zM125 625h125v-125h-125v125z" />
<glyph unicode="?" d="M500 500h125v-125h-125v125zM500 500h-375v125h375v-125zM250 375h250v-125h-250v125zM250 125h125v-125h-125v125z" />
<glyph unicode="@" horiz-adv-x="875" d="M250 125h-125v375h125v-375zM625 0h-375v125h375v-125zM250 0zM250 625v-125h125v-250h250v125h-125v125h125v125h-375zM625 500h125v-125h-125v125z" />
<glyph unicode="A" d="M128 0v500h125v-125h250v125h125v-500h-125v250h-250v-250h-125zM253 625v-125h250v125h-250z" />
<glyph unicode="B" d="M625 500v-125h-125v125h125zM625 250v-125h-125v125h125zM500 500h-250v-125h250v-125h-250v-125h250v-125h-375v625h375v-125z" />
<glyph unicode="C" d="M625 375h-125v125h125v-125zM500 500h-250v125h250v-125zM625 125h-125v125h125v-125zM250 125h-125v375h125v-375zM500 0h-250v125h250v-125zM250 0zM500 250z" />
<glyph unicode="D" d="M125 0v625h375v-125h-250v-375h250v-125h-375zM625 500v-375h-125v375h125z" />
<glyph unicode="E" horiz-adv-x="625" d="M500 500h-250v-125h250v-125h-250v-125h250v-125h-375v625h375v-125z" />
<glyph unicode="F" horiz-adv-x="625" d="M125 0v625h375v-125h-250v-125h250v-125h-250v-250h-125z" />
<glyph unicode="G" d="M625 500h-375v125h375v-125zM250 125h-125v375h125v-375zM500 0h-250v125h250v-125zM250 0zM500 250h-125v125h250v-250h-125v125z" />
<glyph unicode="H" d="M125 0v625h125v-250h250v250h125v-625h-125v250h-250v-250h-125z" />
<glyph unicode="I" horiz-adv-x="375" d="M125 0v625h125v-625h-125z" />
<glyph unicode="J" d="M500 625h125v-500h-125v500zM500 0h-250v125h250v-125zM125 250h125v-125h-125v125z" />
<glyph unicode="K" d="M250 250v-250h-125v625h125v-250h125v-125h-125zM375 500h125v-125h-125v125zM500 625h125v-125h-125v125zM375 250h125v-125h-125v125zM500 125h125v-125h-125v125z" />
<glyph unicode="L" horiz-adv-x="625" d="M250 125h250v-125h-375v625h125v-500z" />
<glyph unicode="M" horiz-adv-x="875" d="M125 0v625h125v-625h-125zM625 0v625h125v-625h-125zM500 500h125v-125h-125v125zM375 375h125v-125h-125v125zM250 500h125v-125h-125v125z" />
<glyph unicode="N" horiz-adv-x="875" d="M125 0v625h125v-625h-125zM625 0v625h125v-625h-125zM500 250h125v-125h-125v125zM375 375h125v-125h-125v125zM250 500h125v-125h-125v125z" />
<glyph unicode="O" d="M500 500h-250v125h250v-125zM250 125h-125v375h125v-375zM500 0h-250v125h250v-125zM250 0zM625 125h-125v375h125v-375z" />
<glyph unicode="P" d="M125 0v625h375v-125h-250v-125h250v-125h-250v-250h-125zM500 500h125v-125h-125v125z" />
<glyph unicode="Q" d="M500 500h-250v125h250v-125zM250 125h-125v375h125v-375zM500 0h-250v125h250v-125zM250 0zM625 125h-125v375h125v-375zM500 0h125v-125h-125v125z" />
<glyph unicode="R" d="M125 0v625h375v-125h-250v-125h250v-125h-250v-250h-125zM500 500h125v-125h-125v125zM375 250h125v-125h-125v125zM500 125h125v-125h-125v125z" />
<glyph unicode="S" d="M125 0v125h375v-125h-375zM250 500v125h375v-125h-375zM250 250h250v125h-250v-125zM500 250h125v-125h-125v125zM125 500h125v-125h-125v125z" />
<glyph unicode="T" horiz-adv-x="625" d="M250 0v500h-125v125h375v-125h-125v-500h-125z" />
<glyph unicode="U" d="M500 625h125v-500h-125v500zM500 0h-250v125h250v-125zM125 625h125v-500h-125v500z" />
<glyph unicode="V" horiz-adv-x="875" d="M125 375v250h125v-250h-125zM375 125h125v-125h-125v125zM250 125v250h125v-250h-125zM500 125v250h125v-250h-125zM625 375v250h125v-250h-125z" />
<glyph unicode="W" horiz-adv-x="875" d="M125 125v500h125v-500h-125zM500 125h125v-125h-125v125zM250 125h125v-125h-125v125zM625 125v500h125v-500h-125zM375 125v375h125v-375h-125z" />
<glyph unicode="X" horiz-adv-x="875" d="M125 125h125v-125h-125v125zM250 250h125v-125h-125v125zM375 375h125v-125h-125v125zM500 500h125v-125h-125v125zM625 625h125v-125h-125v125zM250 500h125v-125h-125v125zM125 625h125v-125h-125v125zM500 250h125v-125h-125v125zM625 125h125v-125h-125v125z" />
<glyph unicode="Y" horiz-adv-x="875" d="M500 500h125v-125h-125v125zM250 500h125v-125h-125v125zM375 0v375h125v-375h-125zM125 625h125v-125h-125v125zM625 625h125v-125h-125v125z" />
<glyph unicode="Z" horiz-adv-x="625" d="M125 0v250h125v-125h250v-125h-375zM500 625v-250h-125v125h-250v125h375zM250 375h125v-125h-125v125z" />
<glyph unicode="[" horiz-adv-x="500" d="M125 0v625h250v-125h-125v-375h125v-125h-250z" />
<glyph unicode="\" horiz-adv-x="625" d="M250 375h-125v250h125v-250zM375 250h-125v125h125v-125zM500 0h-125v250h125v-250z" />
<glyph unicode="]" horiz-adv-x="500" d="M375 0h-250v125h125v375h-125v125h250v-625z" />
<glyph unicode="^" horiz-adv-x="625" d="M125 500h125v-125h-125v125zM250 625h125v-125h-125v125zM375 500h125v-125h-125v125z" />
<glyph unicode="_" d="M625 -125h-500v125h500v-125z" />
<glyph unicode="`" horiz-adv-x="500" d="M250 500h-125v125h125v-125zM375 375h-125v125h125v-125zM250 0z" />
<glyph unicode="a" d="M128 0v500h125v-125h250v125h125v-500h-125v250h-250v-250h-125zM253 625v-125h250v125h-250z" />
<glyph unicode="b" d="M625 500v-125h-125v125h125zM625 250v-125h-125v125h125zM500 500h-250v-125h250v-125h-250v-125h250v-125h-375v625h375v-125z" />
<glyph unicode="c" d="M625 375h-125v125h125v-125zM500 500h-250v125h250v-125zM625 125h-125v125h125v-125zM250 125h-125v375h125v-375zM500 0h-250v125h250v-125zM250 0zM500 250z" />
<glyph unicode="d" d="M125 0v625h375v-125h-250v-375h250v-125h-375zM625 500v-375h-125v375h125z" />
<glyph unicode="e" horiz-adv-x="625" d="M500 500h-250v-125h250v-125h-250v-125h250v-125h-375v625h375v-125z" />
<glyph unicode="f" horiz-adv-x="625" d="M125 0v625h375v-125h-250v-125h250v-125h-250v-250h-125z" />
<glyph unicode="g" d="M625 500h-375v125h375v-125zM250 125h-125v375h125v-375zM500 0h-250v125h250v-125zM250 0zM500 250h-125v125h250v-250h-125v125z" />
<glyph unicode="h" d="M125 0v625h125v-250h250v250h125v-625h-125v250h-250v-250h-125z" />
<glyph unicode="i" horiz-adv-x="375" d="M125 0v625h125v-625h-125z" />
<glyph unicode="j" d="M500 625h125v-500h-125v500zM500 0h-250v125h250v-125zM125 250h125v-125h-125v125z" />
<glyph unicode="k" d="M250 250v-250h-125v625h125v-250h125v-125h-125zM375 500h125v-125h-125v125zM500 625h125v-125h-125v125zM375 250h125v-125h-125v125zM500 125h125v-125h-125v125z" />
<glyph unicode="l" horiz-adv-x="625" d="M250 125h250v-125h-375v625h125v-500z" />
<glyph unicode="m" horiz-adv-x="875" d="M125 0v625h125v-625h-125zM625 0v625h125v-625h-125zM500 500h125v-125h-125v125zM375 375h125v-125h-125v125zM250 500h125v-125h-125v125z" />
<glyph unicode="n" horiz-adv-x="875" d="M125 0v625h125v-625h-125zM625 0v625h125v-625h-125zM500 250h125v-125h-125v125zM375 375h125v-125h-125v125zM250 500h125v-125h-125v125z" />
<glyph unicode="o" d="M500 500h-250v125h250v-125zM250 125h-125v375h125v-375zM500 0h-250v125h250v-125zM250 0zM625 125h-125v375h125v-375z" />
<glyph unicode="p" d="M125 0v625h375v-125h-250v-125h250v-125h-250v-250h-125zM500 500h125v-125h-125v125z" />
<glyph unicode="q" d="M500 500h-250v125h250v-125zM250 125h-125v375h125v-375zM500 0h-250v125h250v-125zM250 0zM625 125h-125v375h125v-375zM500 0h125v-125h-125v125z" />
<glyph unicode="r" d="M125 0v625h375v-125h-250v-125h250v-125h-250v-250h-125zM500 500h125v-125h-125v125zM375 250h125v-125h-125v125zM500 125h125v-125h-125v125z" />
<glyph unicode="s" d="M125 0v125h375v-125h-375zM250 500v125h375v-125h-375zM250 250h250v125h-250v-125zM500 250h125v-125h-125v125zM125 500h125v-125h-125v125z" />
<glyph unicode="t" horiz-adv-x="625" d="M250 0v500h-125v125h375v-125h-125v-500h-125z" />
<glyph unicode="u" d="M500 625h125v-500h-125v500zM500 0h-250v125h250v-125zM125 625h125v-500h-125v500z" />
<glyph unicode="v" horiz-adv-x="875" d="M125 375v250h125v-250h-125zM375 125h125v-125h-125v125zM250 125v250h125v-250h-125zM500 125v250h125v-250h-125zM625 375v250h125v-250h-125z" />
<glyph unicode="w" horiz-adv-x="875" d="M125 125v500h125v-500h-125zM500 125h125v-125h-125v125zM250 125h125v-125h-125v125zM625 125v500h125v-500h-125zM375 125v375h125v-375h-125z" />
<glyph unicode="x" horiz-adv-x="875" d="M125 125h125v-125h-125v125zM250 250h125v-125h-125v125zM375 375h125v-125h-125v125zM500 500h125v-125h-125v125zM625 625h125v-125h-125v125zM250 500h125v-125h-125v125zM125 625h125v-125h-125v125zM500 250h125v-125h-125v125zM625 125h125v-125h-125v125z" />
<glyph unicode="y" horiz-adv-x="875" d="M500 500h125v-125h-125v125zM250 500h125v-125h-125v125zM375 0v375h125v-375h-125zM125 625h125v-125h-125v125zM625 625h125v-125h-125v125z" />
<glyph unicode="z" horiz-adv-x="625" d="M125 0v250h125v-125h250v-125h-375zM500 625v-250h-125v125h-250v125h375zM250 375h125v-125h-125v125z" />
<glyph unicode="{" horiz-adv-x="625" d="M500 500h-125v-125h-125v250h250v-125zM500 0h-250v250h125v-125h125v-125zM250 250h-125v125h125v-125z" />
<glyph unicode="|" horiz-adv-x="375" d="M125 -125v875h125v-875h-125z" />
<glyph unicode="}" horiz-adv-x="625" d="M375 375h-125v125h-125v125h250v-250zM500 250h-125v125h125v-125zM375 0h-250v125h125v125h125v-250z" />
<glyph unicode="~" d="M625 500h-125v125h125v-125zM375 500h-125v125h125v-125zM500 375h-125v125h125v-125zM250 375h-125v125h125v-125z" />
<glyph unicode="&#xad;" horiz-adv-x="625" d="M500 250h-375v125h375v-125z" />
<glyph unicode="&#x2000;" horiz-adv-x="375" />
<glyph unicode="&#x2001;" />
<glyph unicode="&#x2002;" horiz-adv-x="375" />
<glyph unicode="&#x2003;" />
<glyph unicode="&#x2004;" horiz-adv-x="250" />
<glyph unicode="&#x2005;" horiz-adv-x="187" />
<glyph unicode="&#x2006;" horiz-adv-x="125" />
<glyph unicode="&#x2007;" horiz-adv-x="125" />
<glyph unicode="&#x2008;" horiz-adv-x="93" />
<glyph unicode="&#x2009;" horiz-adv-x="150" />
<glyph unicode="&#x200a;" horiz-adv-x="41" />
<glyph unicode="&#x2010;" horiz-adv-x="625" d="M500 250h-375v125h375v-125z" />
<glyph unicode="&#x2011;" horiz-adv-x="625" d="M500 250h-375v125h375v-125z" />
<glyph unicode="&#x2012;" horiz-adv-x="625" d="M500 250h-375v125h375v-125z" />
<glyph unicode="&#x2013;" horiz-adv-x="775" d="M650 250h-525v125h525v-125z" />
<glyph unicode="&#x2014;" horiz-adv-x="1300" d="M1175 250h-1050v125h1050v-125z" />
<glyph unicode="&#x202f;" horiz-adv-x="150" />
<glyph unicode="&#x205f;" horiz-adv-x="187" />
<glyph unicode="&#xe000;" horiz-adv-x="625" d="M0 625h625v-625h-625v625z" />
</font>
</defs>
</svg>
